<?xml version="1.0" encoding="iso-8859-1"?>
<!-- Uploaded to: SVG Repo, www.svgrepo.com, Generator: SVG Repo Mixer Tools -->
<svg version="1.1" id="Layer_1" xmlns="http://www.w3.org/2000/svg" xmlns:xlink="http://www.w3.org/1999/xlink" 
	 viewBox="0 0 512 512" xml:space="preserve">
<circle style="fill:#31BAFD;" cx="256" cy="256" r="256"/>
<path style="fill:#2B9ED8;" d="M509.366,292.728L364.032,147.394L233.589,281.285l-85.813,83.37l144.448,144.782
	C404.449,493.539,493.251,404.882,509.366,292.728z"/>
<circle style="fill:#E6F3FF;" cx="256" cy="256" r="142.222"/>
<path style="fill:#CFDBE6;" d="M256,113.778c-0.193,0-0.381,0.014-0.574,0.014v284.415c0.193,0,0.381,0.014,0.574,0.014
	c78.546,0,142.222-63.676,142.222-142.222S334.546,113.778,256,113.778z"/>
<path style="fill:#324A5E;" d="M256,409.428c-84.601,0-153.428-68.827-153.428-153.428S171.399,102.572,256,102.572
	S409.428,171.399,409.428,256S340.601,409.428,256,409.428z M256,124.983c-72.244,0-131.017,58.773-131.017,131.017
	S183.756,387.017,256,387.017S387.017,328.244,387.017,256S328.244,124.983,256,124.983z"/>
<path style="fill:#2B3B4E;" d="M256,102.572c-0.191,0-0.383,0.007-0.574,0.007v22.418c0.193,0,0.381-0.014,0.574-0.014
	c72.244,0,131.017,58.773,131.017,131.017S328.244,387.017,256,387.017c-0.193,0-0.381-0.014-0.574-0.014v22.418
	c0.191,0,0.383,0.007,0.574,0.007c84.601,0,153.428-68.827,153.428-153.428S340.601,102.572,256,102.572z"/>
<circle style="fill:#FFD15D;" cx="343.178" cy="343.178" r="58.733"/>
<g>
	<path style="fill:#F9B54C;" d="M343.185,284.444c-0.14,0-0.276,0.009-0.414,0.01v117.458c0.138,0,0.276,0.01,0.414,0.01
		c32.44,0,58.74-26.298,58.74-58.74C401.925,310.743,375.625,284.444,343.185,284.444z"/>
	<path style="fill:#F9B54C;" d="M343.185,413.991c-39.043,0-70.808-31.765-70.808-70.808s31.765-70.806,70.808-70.806
		s70.808,31.765,70.808,70.808S382.228,413.991,343.185,413.991z M343.185,296.512c-25.736,0-46.673,20.937-46.673,46.673
		c0,25.736,20.937,46.673,46.673,46.673c25.736,0,46.673-20.937,46.673-46.673C389.858,317.449,368.919,296.512,343.185,296.512z"/>
</g>
<path style="fill:#F4A200;" d="M343.185,272.377c-0.14,0-0.276,0.01-0.414,0.01v24.135c0.138-0.002,0.274-0.01,0.414-0.01
	c25.736,0,46.673,20.937,46.673,46.673c0,25.736-20.937,46.673-46.673,46.673c-0.14,0-0.276-0.009-0.414-0.01v24.135
	c0.138,0,0.274,0.01,0.414,0.01c39.043,0,70.808-31.765,70.808-70.808S382.228,272.377,343.185,272.377z"/>
<rect x="331.111" y="314.733" style="fill:#F9B54C;" width="24.135" height="56.889"/>
<rect x="342.764" y="314.733" style="fill:#F4A200;" width="12.481" height="56.889"/>
<polygon style="fill:#324A5E;" points="267.205,267.205 209.455,267.205 209.455,244.795 244.795,244.795 244.795,170.667 
	267.205,170.667 "/>
<rect x="255.431" y="170.667" style="fill:#2B3B4E;" width="11.779" height="96.539"/>
</svg>